:FULLY-SPECIFIED
:FORCE-ALL-JOINTS-BE-3DOF
:DEGREES
917
root 2.80747 16.132 32.4876 2.90425 10.9562 363.334
lfemur -12.3703 4.92229 -4.23385
ltibia 25.485 0 0
lfoot -7.3762 -34.0047 0
ltoes 19.7149 0 0
rfemur -16.4227 -2.85986 -11.6049
rtibia 49.6709 0 0
rfoot 3.45608 -19.5697 0
rtoes -10.2915 0 0
lowerback -1.72973 -0.83918 -3.10777
upperback -1.11534 -1.01121 -5.39274
thorax -0.239456 -0.49783 -3.87356
lowerneck -6.98731 -4.58564 -1.46863
upperneck 4.44252 -6.35966 5.92185
head 2.89114 -2.98365 1.87343
lclavicle 2.33129e-15 1.67143e-14 0
lhumerus -53.6319 -36.9005 108.882
lradius 59.1971 0 0
lwrist 14.6532 0 0
lhand 39.5603 24.3416 0
lfingers 7.12502 0 0
lthumb 61.8261 34.4734 0
rclavicle 2.33129e-15 1.67143e-14 0
rhumerus -60.1834 51.0118 -97.5569
rradius 130.878 0 0
rwrist -4.3166 0 0
rhand 33.5373 1.80826 0
rfingers 7.12502 0 0
rthumb 57.5157 -740.772 0
918
root 2.74385 16.1125 32.5119 2.99416 10.2129 363.502
lfemur -11.0671 3.35647 -3.38073
ltibia 23.344 0 0
lfoot -6.91843 -36.1735 0
ltoes 19.7376 0 0
rfemur -17.0558 -2.60567 -11.4176
rtibia 48.4043 0 0
rfoot 3.54314 -18.0979 0
rtoes -15.0913 0 0
lowerback -1.8849 -0.805371 -3.13486
upperback -1.129 -0.963637 -5.6252
thorax -0.160862 -0.475231 -4.0945
lowerneck -7.00418 -4.32923 -1.32081
upperneck 4.42845 -6.03256 5.9648
head 2.87379 -2.81715 1.8782
lclavicle 1.91928e-15 1.53138e-14 0
lhumerus -53.4181 -36.9953 108.36
lradius 59.0663 0 0
lwrist 14.9766 0 0
lhand 40.1847 24.7752 0
lfingers 7.12502 0 0
lthumb 62.3532 34.3036 0
rclavicle 1.91928e-15 1.53138e-14 0
rhumerus -60.8645 52.0032 -95.9262
rradius 130.411 0 0
rwrist -4.32322 0 0
rhand 33.214 0.859561 0
rfingers 7.12502 0 0
rthumb 57.1918 -741.594 0
919
root 2.67595 16.0905 32.5363 3.0955 9.44001 363.671
lfemur -9.72964 1.82183 -2.52362
ltibia 21.1706 0 0
lfoot -6.55597 -38.2003 0
ltoes 19.5601 0 0
rfemur -17.7339 -2.41076 -11.2159
rtibia 47.1763 0 0
rfoot 3.53779 -16.5735 0
rtoes -19.8747 0 0
lowerback -2.03603 -0.771119 -3.147
upperback -1.14322 -0.91616 -5.85673
thorax -0.0852557 -0.452838 -4.32302
lowerneck -7.01949 -4.06111 -1.15503
upperneck 4.40209 -5.69021 5.99643
head 2.85151 -2.64349 1.87681
lclavicle 1.45346e-15 1.37329e-14 0
lhumerus -53.2301 -37.1149 107.866
lradius 58.9259 0 0
lwrist 15.3319 0 0
lhand 40.7928 25.1956 0
lfingers 7.12502 0 0
lthumb 62.8672 34.1409 0
rclavicle 1.45346e-15 1.37329e-14 0
rhumerus -61.2773 52.6172 -93.9705
rradius 129.557 0 0
rwrist -4.37949 0 0
rhand 32.6042 -0.269885 0
rfingers 7.12502 0 0
rthumb 56.5938 -742.629 0
920
root 2.60299 16.0656 32.5617 3.21634 8.63153 363.842
lfemur -8.35925 0.325867 -1.66004
ltibia 18.9662 0 0
lfoot -6.30386 -40.0658 0
ltoes 19.1616 0 0
rfemur -18.4279 -2.27519 -11.023
rtibia 45.9756 0 0
rfoot 3.41715 -15.0211 0
rtoes -24.609 0 0
lowerback -2.18987 -0.734989 -3.13992
upperback -1.16105 -0.866463 -6.08717
thorax -0.0124102 -0.429521 -4.56194
lowerneck -7.03252 -3.78178 -0.971042
upperneck 4.36149 -5.33313 6.01521
head 2.82364 -2.46304 1.86866
lclavicle 9.44915e-16 1.19636e-14 0
lhumerus -53.0837 -37.2609 107.416
lradius 58.7743 0 0
lwrist 15.7194 0 0
lhand 41.385 25.6044 0
lfingers 7.12502 0 0
lthumb 63.3688 33.9882 0
rclavicle 9.44915e-16 1.19636e-14 0
rhumerus -61.3811 52.8288 -91.675
rradius 128.286 0 0
rwrist -4.48357 0 0
rhand 31.7061 -1.57391 0
rfingers 7.12502 0 0
rthumb 55.7199 -743.873 0
921
root 2.5242 16.0372 32.589 3.36475 7.78131 364.016
lfemur -6.95738 -1.12392 -0.787526
ltibia 16.7322 0 0
lfoot -6.17717 -41.7509 0
ltoes 18.5214 0 0
rfemur -19.1085 -2.19908 -10.8619
rtibia 44.7906 0 0
rfoot 3.15835 -13.4647 0
rtoes -29.2616 0 0
lowerback -2.35316 -0.695543 -3.10934
upperback -1.18553 -0.812232 -6.31637
thorax 0.0579002 -0.404151 -4.81407
lowerneck -7.04253 -3.49176 -0.768593
upperneck 4.30472 -4.96183 6.01957
head 2.78949 -2.27616 1.85316
lclavicle 4.04708e-16 9.9974e-15 0
lhumerus -52.9946 -37.4345 107.03
lradius 58.6102 0 0
lwrist 16.1396 0 0
lhand 41.9615 26.0028 0
lfingers 7.12502 0 0
lthumb 63.8584 33.8482 0
rclavicle 4.04708e-16 9.9974e-15 0
rhumerus -61.1351 52.6132 -89.0249
rradius 126.571 0 0
rwrist -4.63362 0 0
rhand 30.5177 -3.04635 0
rfingers 7.12502 0 0
rthumb 54.5687 -745.321 0
922
root 2.43879 16.0048 32.619 3.5488 6.88321 364.193
lfemur -5.52542 -2.52002 0.0963852
ltibia 14.4699 0 0
lfoot -6.19095 -43.2363 0
ltoes 17.6186 0 0
rfemur -19.7463 -2.18249 -10.7557
rtibia 43.6098 0 0
rfoot 2.73849 -11.9288 0
rtoes -33.7998 0 0
lowerback -2.53263 -0.651345 -3.05099
upperback -1.21971 -0.751151 -6.54418
thorax 0.125901 -0.375597 -5.08223
lowerneck -7.04883 -3.19157 -0.547441
upperneck 4.22984 -4.57683 6.00796
head 2.74839 -2.08322 1.82973
lclavicle -1.56081e-16 7.8262e-15 0
lhumerus -52.9785 -37.6374 106.724
lradius 58.4322 0 0
lwrist 16.5926 0 0
lhand 42.5227 26.3922 0
lfingers 7.12502 0 0
lthumb 64.3366 33.7239 0
rclavicle -1.56081e-16 7.8262e-15 0
rhumerus -60.4986 51.9455 -86.0055
rradius 124.384 0 0
rwrist -4.82781 0 0
rhand 29.0373 -4.68104 0
rfingers 7.12502 0 0
rthumb 53.1383 -746.971 0
923
root 2.34599 15.9681 32.6526 3.77656 5.93112 364.375
lfemur -4.06479 -3.85494 0.994165
ltibia 12.1806 0 0
lfoot -6.36024 -44.5028 0
ltoes 16.4323 0 0
rfemur -20.3123 -2.22553 -10.7275
rtibia 42.4218 0 0
rfoot 2.13471 -10.4377 0
rtoes -38.1908 0 0
lowerback -2.73501 -0.600958 -2.96058
upperback -1.26663 -0.680906 -6.77044
thorax 0.191819 -0.34273 -5.36922
lowerneck -7.05067 -2.88172 -0.307342
upperneck 4.13493 -4.17862 5.97884
head 2.69965 -1.88457 1.79777
lclavicle -7.26376e-16 5.44173e-15 0
lhumerus -53.0511 -37.8708 106.518
lradius 58.2391 0 0
lwrist 17.0791 0 0
lhand 43.0688 26.774 0
lfingers 7.12502 0 0
lthumb 64.8037 33.6182 0
rclavicle -7.26376e-16 5.44173e-15 0
rhumerus -59.4308 50.8008 -82.6021
rradius 121.696 0 0
rwrist -5.0643 0 0
rhand 27.2629 -6.4718 0
rfingers 7.12502 0 0
rthumb 51.4274 -748.819 0
924
root 2.24503 15.9265 32.6905 4.05608 4.91889 364.564
lfemur -2.5769 -5.12117 1.90828
ltibia 9.8658 0 0
lfoot -6.70011 -45.5312 0
ltoes 14.942 0 0
rfemur -20.777 -2.32829 -10.8003
rtibia 41.215 0 0
rfoot 1.32412 -9.01568 0
rtoes -42.4019 0 0
lowerback -2.96705 -0.542945 -2.83384
upperback -1.32934 -0.599181 -6.99502
thorax 0.255879 -0.30442 -5.67788
lowerneck -7.04735 -2.56271 -0.048049
upperneck 4.01804 -3.76773 5.93066
head 2.6426 -1.6806 1.75671
lclavicle -1.2951e-15 2.83575e-15 0
lhumerus -53.2282 -38.1363 106.429
lradius 58.0293 0 0
lwrist 17.5992 0 0
lhand 43.6002 27.1496 0
lfingers 7.12502 0 0
lthumb 65.2605 33.534 0
rclavicle -1.2951e-15 2.83575e-15 0
rhumerus -57.8909 49.1542 -78.7999
rradius 118.48 0 0
rwrist -5.34125 0 0
rhand 25.1926 -8.41248 0
rfingers 7.12502 0 0
rthumb 49.4341 -750.861 0
925
root 2.13513 15.8796 32.7337 4.39544 3.84042 364.759
lfemur -1.06315 -6.31122 2.8412
ltibia 7.52681 0 0
lfoot -7.2256 -46.3024 0
ltoes 13.1266 0 0
rfemur -21.1112 -2.49084 -10.9972
rtibia 39.9781 0 0
rfoot 0.283837 -7.68699 0
rtoes -46.4005 0 0
lowerback -3.23548 -0.47587 -2.6665
upperback -1.41089 -0.503662 -7.21775
thorax 0.318308 -0.259537 -6.011
lowerneck -7.03814 -2.23507 0.230682
upperneck 3.87724 -3.34467 5.86185
head 2.57656 -1.47165 1.70594
lclavicle -1.85118e-15 0 0
lhumerus -53.5254 -38.4352 106.474
lradius 57.8015 0 0
lwrist 18.1533 0 0
lhand 44.117 27.5203 0
lfingers 7.12502 0 0
lthumb 65.7072 33.474 0
rclavicle -1.85118e-15 0 0
rhumerus -55.8381 46.9807 -74.5842
rradius 114.708 0 0
rwrist -5.65682 0 0
rhand 22.8247 -10.4969 0
rfingers 7.12502 0 0
rthumb 47.1569 -753.094 0
926
root 2.02729 15.8325 32.776 4.74559 2.80797 364.942
lfemur 0.34947 -7.32852 3.69731
ltibia 5.36392 0 0
lfoot -7.88017 -46.7464 0
ltoes 11.1358 0 0
rfemur -21.383 -2.72114 -11.2292
rtibia 38.8695 0 0
rfoot -0.854484 -6.48667 0
rtoes -49.9089 0 0
lowerback -3.49508 -0.409739 -2.48067
upperback -1.49582 -0.409733 -7.41983
thorax 0.371249 -0.215514 -6.33436
lowerneck -7.0263 -1.92466 0.506549
upperneck 3.72838 -2.94321 5.77848
head 2.50844 -1.27419 1.64976
lclavicle -2.48594e-15 -3.03683e-15 0
lhumerus -53.8813 -38.7465 106.605
lradius 57.5787 0 0
lwrist 18.703 0 0
lhand 44.5698 27.8412 0
lfingers 7.12502 0 0
lthumb 66.1007 33.4312 0
rclavicle -2.48594e-15 -3.03683e-15 0
rhumerus -53.472 44.3728 -70.2598
rradius 110.648 0 0
rwrist -6.0168 0 0
rhand 20.2437 -12.6348 0
rfingers 7.12502 0 0
rthumb 44.6772 -755.418 0
927
root 1.93235 15.7902 32.811 5.05409 1.92933 365.094
lfemur 1.54653 -8.09389 4.38819
ltibia 3.55812 0 0
lfoot -8.59457 -46.8241 0
ltoes 9.13292 0 0
rfemur -21.6792 -3.0236 -11.3951
rtibia 38.0419 0 0
rfoot -1.947 -5.42568 0
rtoes -52.7072 0 0
lowerback -3.69885 -0.354968 -2.301
upperback -1.56724 -0.333463 -7.58429
thorax 0.407559 -0.180117 -6.61389
lowerneck -7.01541 -1.65473 0.758669
upperneck 3.58792 -2.59386 5.68802
head 2.44525 -1.10296 1.59282
lclavicle -3.28052e-15 -6.21377e-15 0
lhumerus -54.2243 -39.0485 106.758
lradius 57.3832 0 0
lwrist 19.2116 0 0
lhand 44.9137 28.0711 0
lfingers 7.12502 0 0
lthumb 66.4014 33.3969 0
rclavicle -3.28052e-15 -6.21377e-15 0
rhumerus -51.023 41.4575 -66.1302
rradius 106.589 0 0
rwrist -6.42483 0 0
rhand 17.5436 -14.7408 0
rfingers 7.12502 0 0
rthumb 42.0851 -757.738 0
928
root 1.84925 15.7523 32.8394 5.32386 1.19163 365.216
lfemur 2.54545 -8.62587 4.92706
ltibia 2.0818 0 0
lfoot -9.36482 -46.563 0
ltoes 7.11819 0 0
rfemur -21.9994 -3.39302 -11.4991
rtibia 37.4748 0 0
rfoot -2.99829 -4.49229 0
rtoes -54.8495 0 0
lowerback -3.85083 -0.310733 -2.12695
upperback -1.62602 -0.273563 -7.71372
thorax 0.428533 -0.152712 -6.85266
lowerneck -7.00525 -1.42185 0.989413
upperneck 3.45483 -2.2922 5.59102
head 2.38647 -0.955748 1.53511
lclavicle -4.20859e-15 -9.49066e-15 0
lhumerus -54.5551 -39.3418 106.934
lradius 57.2126 0 0
lwrist 19.6822 0 0
lhand 45.1562 28.2172 0
lfingers 7.12502 0 0
lthumb 66.6157 33.3715 0
rclavicle -4.20859e-15 -9.49066e-15 0
rhumerus -48.4973 38.2619 -62.1793
rradius 102.53 0 0
rwrist -6.87587 0 0
rhand 14.7364 -16.8161 0
rfingers 7.12502 0 0
rthumb 39.3919 -760.051 0
929
root 1.77697 15.7184 32.8614 5.55786 0.581986 365.312
lfemur 3.36365 -8.943 5.32717
ltibia 0.907368 0 0
lfoot -10.187 -45.9902 0
ltoes 5.09172 0 0
rfemur -22.3427 -3.82418 -11.5458
rtibia 37.1478 0 0
rfoot -4.01294 -3.67474 0
rtoes -56.3898 0 0
lowerback -3.95508 -0.276212 -1.95803
upperback -1.67307 -0.228744 -7.81071
thorax 0.435466 -0.132667 -7.05375
lowerneck -6.99559 -1.22258 1.20116
upperneck 3.32812 -2.03381 5.48805
head 2.33158 -0.830343 1.47662
lclavicle -5.24381e-15 -1.28273e-14 0
lhumerus -54.8745 -39.6272 107.13
lradius 57.0645 0 0
lwrist 20.1178 0 0
lhand 45.3045 28.2865 0
lfingers 7.12502 0 0
lthumb 66.7498 33.3556 0
rclavicle -5.24381e-15 -1.28273e-14 0
rhumerus -45.9008 34.8133 -58.3904
rradius 98.4701 0 0
rwrist -7.36488 0 0
rhand 11.8342 -18.862 0
rfingers 7.12502 0 0
rthumb 36.6093 -762.358 0
930
root 1.71444 15.688 32.8777 5.75903 0.0875306 365.384
lfemur 4.01855 -9.06384 5.60174
ltibia 0.00721188 0 0
lfoot -11.057 -45.1329 0
ltoes 3.05367 0 0
rfemur -22.7085 -4.3119 -11.5396
rtibia 37.0403 0 0
rfoot -4.99552 -2.9613 0
rtoes -57.382 0 0
lowerback -4.01563 -0.250583 -1.79371
upperback -1.70926 -0.197717 -7.87786
thorax 0.429652 -0.11935 -7.22023
lowerneck -6.98622 -1.05349 1.39627
upperneck 3.20676 -1.81428 5.37967
head 2.28006 -0.724537 1.41733
lclavicle -6.35985e-15 -1.61835e-14 0
lhumerus -55.183 -39.9053 107.345
lradius 56.9364 0 0
lwrist 20.5217 0 0
lhand 45.366 28.2862 0
lfingers 7.12502 0 0
lthumb 66.8101 33.3497 0
rclavicle -6.35985e-15 -1.61835e-14 0
rhumerus -43.2393 31.1387 -54.7473
rradius 94.4104 0 0
rwrist -7.88683 0 0
rhand 8.84915 -20.8798 0
rfingers 7.12502 0 0
rthumb 33.7486 -764.657 0
